<?xml version="1.0" standalone="no"?>
<!DOCTYPE svg PUBLIC "-//W3C//DTD SVG 20010904//EN"
 "http://www.w3.org/TR/2001/REC-SVG-20010904/DTD/svg10.dtd">
<svg version="1.0" xmlns="http://www.w3.org/2000/svg"
 width="1120.000000pt" height="1120.000000pt" viewBox="0 0 1120.000000 1120.000000"
 preserveAspectRatio="xMidYMid meet">
<metadata>
Created by potrace 1.14, written by Peter Selinger 2001-2017
</metadata>
<g transform="translate(0.000000,1120.000000) scale(0.100000,-0.100000)"
fill="#000000" stroke="none">
<path d="M6630 9553 c-13 -27 -24 -50 -25 -53 -4 -15 -112 -248 -136 -292 -11
-21 -17 -38 -12 -38 4 0 3 -4 -2 -8 -6 -4 -39 -70 -75 -147 -110 -241 -141
-308 -171 -371 -16 -33 -29 -65 -29 -71 0 -6 -7 -16 -15 -23 -9 -7 -14 -15
-11 -17 2 -2 -11 -36 -30 -74 -19 -38 -34 -71 -34 -73 0 -2 -29 -64 -63 -137
-35 -74 -72 -152 -82 -174 -20 -44 -70 -153 -112 -243 -15 -31 -28 -59 -28
-62 -1 -3 -19 -41 -39 -85 -44 -92 -76 -161 -188 -405 -44 -96 -87 -185 -95
-197 -8 -12 -14 -23 -12 -25 2 -4 -35 -86 -153 -338 -22 -47 -57 -123 -79
-170 -21 -47 -49 -107 -63 -134 -14 -27 -23 -53 -20 -58 3 -4 1 -8 -5 -8 -5 0
-13 -10 -17 -22 -3 -12 -26 -64 -51 -117 -25 -53 -61 -130 -80 -171 -19 -41
-43 -92 -54 -112 -11 -21 -17 -38 -13 -38 3 0 2 -6 -4 -13 -10 -11 -45 -86
-184 -387 -16 -36 -40 -87 -53 -115 -214 -457 -257 -552 -258 -562 0 -7 -4
-13 -9 -13 -4 0 -8 -5 -8 -10 0 -6 -25 -63 -55 -126 -30 -64 -55 -118 -55
-120 0 -2 -20 -45 -44 -96 -64 -135 -132 -281 -135 -293 -2 -5 -12 -28 -24
-50 -11 -22 -20 -41 -19 -42 0 -1 -22 -47 -49 -102 -27 -56 -49 -103 -49 -106
0 -3 -18 -41 -40 -85 -21 -44 -39 -81 -38 -83 0 -1 -16 -36 -35 -77 -40 -86
-97 -210 -134 -290 -14 -30 -45 -95 -68 -145 -23 -49 -52 -114 -65 -142 -13
-29 -26 -54 -29 -54 -17 -4 -1831 -3 -1831 0 0 3 18 42 40 87 22 46 40 88 40
93 0 6 5 11 10 11 6 0 9 3 8 8 -2 4 9 32 23 62 65 135 89 189 89 199 0 6 5 11
10 11 6 0 10 5 10 10 0 6 21 54 46 108 26 53 59 124 74 157 62 135 121 261
130 277 9 16 5 18 -32 19 -24 1 -46 1 -50 0 -14 -2 -790 -13 -1040 -14 -137
-1 -248 -6 -248 -10 0 -4 -7 -4 -16 1 -27 15 -71 2 -84 -26 -8 -15 -15 -34
-16 -42 -2 -8 -8 -16 -13 -18 -6 -2 -11 -9 -11 -16 0 -7 -16 -45 -35 -85 -19
-39 -35 -73 -35 -75 0 -3 -22 -51 -49 -108 -27 -56 -61 -130 -76 -163 -73
-160 -87 -190 -117 -252 -17 -38 -32 -70 -33 -73 -1 -3 -16 -36 -34 -75 -19
-38 -46 -97 -61 -130 -28 -61 -83 -180 -125 -270 -13 -27 -35 -76 -49 -108
-15 -32 -44 -95 -66 -140 -36 -78 -38 -86 -37 -181 0 -129 18 -226 58 -323 37
-88 37 -88 99 -153 104 -108 215 -137 531 -139 121 0 224 -3 229 -6 5 -3 11
-1 15 4 3 7 15 7 30 1 15 -6 27 -6 30 0 4 7 13 7 24 0 10 -5 21 -7 24 -4 3 3
108 5 234 4 882 -6 3092 -7 3091 -2 -1 4 10 33 25 65 15 31 39 83 53 115 31
67 76 163 134 287 23 50 41 90 40 90 0 0 16 34 36 75 20 41 35 75 34 75 -1 0
17 37 39 82 23 45 41 84 41 86 0 3 25 58 56 123 31 66 69 148 86 184 35 76 85
182 121 260 14 30 39 84 55 120 16 36 50 108 75 160 73 156 97 210 97 220 0 6
5 10 10 10 6 0 10 6 10 14 0 7 20 54 45 105 25 50 45 94 45 96 0 2 21 48 46
102 62 131 100 212 172 368 115 249 132 287 132 296 0 5 5 9 10 9 6 0 10 6 10
14 0 8 27 70 60 139 33 69 60 130 60 136 0 6 4 11 10 11 5 0 9 3 8 8 -2 10 28
77 130 292 17 36 42 90 55 120 14 30 45 98 70 150 118 250 137 292 137 295 0
2 25 57 56 122 31 65 64 136 74 158 29 63 109 234 138 295 14 30 27 57 27 60
2 7 51 113 90 195 45 94 86 189 85 194 -1 2 2 7 7 10 7 5 47 86 49 101 0 3 23
52 51 110 28 58 61 128 73 155 12 28 40 88 62 135 94 202 106 227 122 262 9
21 16 41 16 44 -1 4 2 10 7 13 5 3 25 42 45 86 20 44 52 114 72 156 20 42 36
82 36 88 0 6 5 11 10 11 6 0 9 3 8 8 0 4 7 25 17 47 10 22 19 42 20 45 1 3 19
41 39 85 21 44 49 104 62 133 l24 52 909 0 909 0 -40 -82 c-192 -395 -224
-463 -228 -483 -1 -5 -11 -22 -21 -37 -10 -14 -19 -29 -19 -33 0 -4 -22 -52
-49 -108 -27 -56 -70 -147 -95 -202 -26 -55 -51 -108 -56 -118 -13 -22 7 -31
50 -25 17 3 30 1 30 -4 0 -5 8 -4 19 1 10 6 21 8 24 4 4 -3 33 -5 64 -4 55 2
66 2 96 1 6 -1 37 0 68 1 30 1 60 0 65 -4 6 -3 16 -2 23 3 8 4 27 4 42 0 16
-5 29 -5 29 0 0 5 13 5 30 0 18 -5 32 -5 36 1 3 5 10 6 16 3 5 -4 36 -6 69 -5
57 1 75 2 102 1 6 -1 37 -1 67 0 51 0 63 0 105 0 8 0 23 0 33 0 9 0 26 0 37 0
11 -1 26 -1 33 -1 29 2 40 2 97 2 33 -1 68 -1 78 -1 9 0 23 0 30 0 6 -1 37 0
68 1 30 1 60 0 65 -4 6 -3 16 -2 23 3 8 4 27 4 43 0 28 -9 29 -8 70 78 49 106
94 204 97 214 1 4 15 33 31 64 17 31 30 62 30 70 0 8 5 14 10 14 6 0 10 7 10
16 0 9 7 28 15 42 8 15 34 70 58 122 24 52 56 120 70 150 14 30 42 91 62 135
20 44 48 105 62 135 14 30 41 88 59 128 19 39 50 107 70 150 19 42 46 100 59
127 13 28 50 109 83 180 33 72 74 162 92 200 18 39 33 71 32 72 -1 2 14 32 33
68 19 36 32 65 29 65 -4 0 -1 6 5 14 28 33 -74 168 -182 242 -38 26 -146 75
-164 75 -2 0 -17 5 -35 10 -18 5 -55 13 -83 17 -27 3 -955 8 -2060 9 l-2011 3
-24 -47z"/>
<path d="M3324 9512 c-20 -42 -76 -162 -124 -267 -123 -267 -158 -341 -193
-415 -17 -36 -31 -67 -32 -70 -1 -3 -13 -30 -27 -60 -32 -70 -90 -194 -134
-288 -19 -40 -34 -77 -34 -82 0 -6 -4 -10 -8 -10 -5 0 -9 -6 -9 -12 0 -7 -23
-60 -50 -118 -28 -58 -61 -127 -73 -155 -13 -27 -42 -92 -66 -143 -24 -51 -44
-96 -44 -100 -1 -4 -10 -23 -20 -42 -11 -19 -35 -69 -53 -110 -19 -41 -50
-109 -70 -150 -19 -41 -46 -100 -60 -130 -72 -160 -136 -297 -193 -417 -24
-51 -44 -95 -44 -96 0 -2 -23 -53 -52 -113 -29 -60 -52 -111 -53 -114 -1 -3
-18 -41 -40 -85 -21 -44 -39 -82 -40 -85 -3 -20 -41 -100 -47 -100 -5 0 -8 -5
-8 -10 0 -12 -52 -129 -77 -175 -10 -16 -16 -30 -14 -30 1 0 -23 -53 -53 -119
-31 -65 -56 -120 -56 -122 0 -2 -18 -41 -41 -87 -22 -45 -40 -83 -40 -84 0 -2
-20 -47 -45 -100 -25 -54 -55 -118 -66 -143 -11 -25 -42 -92 -69 -148 -27 -57
-49 -105 -49 -107 0 -1 -22 -49 -49 -106 -95 -202 -141 -302 -141 -308 0 -3
33 -5 73 -4 82 1 865 14 1181 18 242 3 206 -16 281 150 25 55 55 117 66 137
11 21 20 40 20 43 0 2 22 51 48 107 48 101 85 181 157 336 20 42 47 100 60
128 13 28 24 56 24 62 0 7 5 12 10 12 6 0 10 5 10 12 0 6 17 45 37 87 20 42
37 78 38 81 0 3 11 28 24 55 13 28 43 93 68 145 24 52 53 111 63 131 11 20 17
39 13 43 -3 3 -1 6 5 6 7 0 12 4 12 10 0 5 20 53 45 106 25 53 45 100 45 105
0 5 5 9 12 9 6 0 9 3 5 6 -3 3 9 36 28 73 18 36 42 87 54 114 11 26 27 57 35
68 14 21 16 19 46 -42 17 -35 50 -100 74 -144 23 -44 64 -120 91 -170 26 -49
68 -128 93 -175 25 -47 53 -100 61 -117 8 -18 19 -33 23 -33 4 0 8 -9 8 -20 0
-11 5 -20 12 -20 6 0 8 -3 5 -7 -4 -3 -3 -11 2 -17 9 -12 44 -76 131 -241 63
-120 66 -123 75 -94 4 13 29 68 56 122 26 53 48 98 47 100 0 1 19 43 43 92 24
50 44 92 45 95 0 3 22 50 48 105 69 145 84 179 83 185 -1 3 8 19 21 37 12 17
22 33 22 36 0 7 53 121 126 275 30 62 54 114 54 117 0 2 27 58 59 125 32 66
57 120 54 120 -3 0 0 6 6 14 10 12 2 34 -39 113 -74 141 -84 157 -95 165 -5 4
-6 8 -1 8 5 0 3 7 -4 15 -7 8 -25 41 -41 72 -17 32 -40 76 -52 98 -47 82 -111
201 -126 233 -8 17 -19 32 -23 32 -4 0 -8 9 -8 20 0 11 -5 20 -12 20 -6 0 -8
3 -5 7 4 3 3 11 -2 17 -5 6 -21 32 -35 59 -14 26 -38 68 -52 95 -15 26 -45 81
-67 122 -22 41 -53 98 -68 125 -14 28 -40 75 -56 105 -16 30 -72 134 -125 230
-52 96 -114 211 -138 255 -23 44 -54 100 -68 125 -27 49 -67 122 -116 215 -28
52 -68 124 -126 230 l-17 30 -106 2 -107 2 -36 -77z"/>
<path d="M8378 6399 c-5 -3 -9 -9 -9 -13 1 -10 -10 -38 -44 -111 -18 -38 -48
-101 -66 -140 -18 -38 -33 -72 -34 -75 0 -3 -14 -32 -29 -65 -61 -127 -115
-244 -166 -355 -29 -63 -67 -146 -85 -185 -18 -38 -45 -97 -61 -130 -15 -33
-28 -62 -29 -65 -8 -27 -39 -90 -44 -90 -4 0 -8 -7 -8 -15 0 -8 -11 -39 -25
-67 -36 -76 -83 -175 -108 -233 -12 -27 -42 -92 -66 -144 -24 -51 -44 -100
-44 -107 0 -8 -3 -14 -7 -14 -5 0 -17 -21 -27 -48 -11 -26 -36 -83 -57 -127
-20 -44 -47 -102 -59 -130 -13 -27 -40 -87 -60 -132 -21 -45 -35 -84 -32 -87
3 -3 0 -6 -6 -6 -7 0 -12 -4 -12 -9 0 -6 -18 -49 -40 -96 -22 -47 -40 -88 -40
-90 0 -3 -55 -124 -90 -200 -11 -22 -48 -105 -83 -185 -36 -80 -70 -157 -77
-172 -14 -30 -30 -37 -30 -14 0 7 -9 25 -21 40 -11 14 -17 26 -14 26 4 0 2 6
-4 13 -10 13 -43 74 -124 232 -17 33 -36 63 -42 67 -5 4 -6 8 -1 8 5 0 4 6 -2
13 -5 6 -31 53 -57 102 -26 50 -64 122 -85 160 -47 87 -123 232 -186 352 -33
63 -52 89 -59 82 -5 -5 -10 -13 -11 -17 0 -4 -16 -38 -34 -77 -19 -38 -35 -72
-35 -75 -1 -3 -21 -45 -44 -95 -125 -262 -145 -305 -174 -365 -17 -36 -32 -67
-32 -70 -1 -5 -24 -53 -131 -275 -26 -55 -48 -102 -49 -105 0 -3 -15 -34 -32
-70 -17 -36 -33 -69 -35 -74 -1 -4 -26 -56 -54 -115 l-52 -106 66 -125 c36
-69 77 -147 92 -175 15 -27 46 -86 70 -130 23 -44 59 -111 80 -150 42 -78 90
-169 188 -355 36 -69 85 -160 109 -204 24 -43 43 -81 43 -83 0 -3 9 -18 21
-34 11 -16 17 -29 14 -29 -3 0 3 -14 15 -30 l21 -30 639 0 638 0 12 32 c7 18
12 36 11 40 0 5 4 8 9 8 6 0 10 5 10 11 0 5 13 37 30 70 16 33 29 60 29 62 -1
1 18 43 41 92 23 50 66 142 95 205 51 112 79 172 146 315 19 39 34 72 35 75 0
3 14 34 31 70 92 196 110 236 113 245 2 6 21 45 42 87 21 43 38 80 38 82 0 2
23 53 51 113 28 59 63 135 79 168 15 33 44 96 65 140 62 131 78 170 77 178 -1
4 2 7 8 7 6 0 9 3 8 8 -1 4 8 27 19 52 34 72 103 222 123 266 11 23 45 95 76
160 53 113 76 163 79 174 0 3 10 23 22 45 11 22 22 43 22 47 1 4 12 29 24 55
11 27 20 51 19 56 -1 4 2 7 7 7 5 0 13 10 17 23 4 12 25 60 47 107 22 47 52
112 67 145 15 33 44 96 65 140 43 92 78 168 80 175 1 3 18 41 39 85 56 119
101 214 126 270 12 28 39 86 60 130 56 119 109 233 137 295 13 30 35 78 48
105 95 202 125 268 125 271 0 3 15 36 34 74 19 37 32 71 28 74 -3 3 0 6 6 6
23 0 12 28 -13 32 -14 3 -25 1 -25 -3 0 -5 -10 -5 -22 0 -12 4 -37 5 -55 1
-18 -5 -33 -4 -33 0 0 5 -13 5 -30 0 -16 -5 -30 -5 -30 -1 0 4 -20 5 -45 1
-24 -4 -50 -3 -57 1 -6 4 -20 3 -29 -2 -11 -6 -20 -5 -24 1 -3 5 -15 6 -28 1
-12 -5 -34 -5 -49 0 -16 4 -28 4 -28 -1 0 -5 -13 -5 -30 0 -17 5 -30 5 -30 0
0 -5 -13 -5 -30 0 -18 5 -30 5 -30 0 0 -6 -10 -6 -25 0 -15 6 -27 6 -30 0 -3
-6 -15 -6 -29 0 -13 5 -27 6 -30 3 -8 -8 -76 -9 -76 -1 0 4 -13 3 -30 -2 -16
-5 -30 -6 -30 -2 0 4 -22 7 -50 7 -27 0 -50 -3 -50 -7 0 -4 -13 -3 -30 2 -17
5 -30 5 -30 0 0 -5 -10 -6 -22 -1 -13 4 -35 5 -50 0 -15 -4 -30 -4 -33 1 -3 5
-16 5 -30 0 -15 -6 -27 -6 -30 0 -3 5 -13 6 -23 3 -9 -4 -32 -6 -52 -5 -105 6
-233 6 -242 1z"/>
</g>
</svg>
