<svg
              xmlns="http://www.w3.org/2000/svg"
              width="42"
              height="30"
              viewBox="0 0 42 30"
              fill="none"
            >
              <path
                d="M24.9463 0L13.4363 24.8431H3.66446L1.73828 29.9181L16.349 29.9591L27.9793 4.91132H37.49L39.9799 0H24.9463Z"
                // fill="#303030"
                className={cn(
                  'fill-base-content',
                  mode === 'dark' && 'fill-accent-content',
                )}
              />
              <path
                fillRule="evenodd"
                clipRule="evenodd"
                d="M18.2282 8.95173L13.3946 0.0410156H12.5969L4.29718 17.9777L9.81311 17.8939C11.1255 15.087 12.4328 12.2814 13.3946 10.2131L15.6471 14.4446L18.2282 8.95173ZM8.39825 20.9157L2.89903 20.9993L0.0202526 27.2207C-0.0579602 27.8989 0.0484092 29.3528 1.09959 29.7434C2.41356 30.2317 4.1498 29.6213 4.61908 28.8483C4.81674 28.5226 6.47147 25.0244 8.39825 20.9157Z"
                fill="#570DF8"
              />
              <path
                fillRule="evenodd"
                clipRule="evenodd"
                d="M23.8183 19.4816L21.2344 24.9659L23.9122 30H28.7042L37.0336 12H31.4345C29.5031 16.1479 27.4707 20.6003 26.0733 23.7381L23.8183 19.4816ZM32.8393 9H38.4219L41.9995 1.2688C41.8272 0.845883 41.1632 0.0082294 39.8854 0.0409716C38.2881 0.0818993 37.6463 0.243089 36.9257 0.818585C36.6565 1.03349 34.9317 4.5589 32.8393 9Z"
                fill="#570DF8"
              />
            </svg>