<svg width="70" height="50" viewBox="0 0 70 50" fill="none" xmlns="http://www.w3.org/2000/svg">
<path d="M22.3937 41.5052H22.4576L22.4844 41.4472L41.6409 0.1H66.4702L62.4218 8.08554H46.632H46.5682L46.5413 8.14343L27.1844 49.8317L3.04173 49.764L6.17628 41.5052H22.3937Z" fill="white" stroke="#570DF8" stroke-width="0.2"/>
<path fill-rule="evenodd" clip-rule="evenodd" d="M30.3803 14.9196L22.3243 0.0683594H20.9948L7.16196 29.9629L16.3552 29.8232C18.5425 25.145 20.7213 20.469 22.3243 17.0219L26.0785 24.0744L30.3803 14.9196ZM13.9971 34.8595L4.83171 34.9989L0.0337543 45.3679C-0.0966003 46.4982 0.0806818 48.9214 1.83265 49.5724C4.0226 50.3862 6.91633 49.3689 7.69846 48.0806C8.02789 47.5377 10.7858 41.7074 13.9971 34.8595Z" fill="#570DF8"/>
<path fill-rule="evenodd" clip-rule="evenodd" d="M39.6971 32.4695L35.3906 41.61L39.8536 50.0002H47.8403L61.7226 20.0002H52.3908C49.1718 26.9133 45.7845 34.334 43.4555 39.5637L39.6971 32.4695ZM54.7321 15.0002H64.0365L69.9991 2.11483C69.712 1.40997 68.6053 0.0138783 66.4756 0.0684487C63.8135 0.136662 62.7438 0.405311 61.5428 1.36447C61.0941 1.72265 58.2195 7.59833 54.7321 15.0002Z" fill="#570DF8"/>
</svg>
